<?xml version="1.0" encoding="UTF-8"?>
<svg id="Ebene_1" xmlns="http://www.w3.org/2000/svg" viewBox="0 0 135 115">
  <defs>
    <style>
      .cls-1 {
        stroke-linejoin: round;
      }

      .cls-1, .cls-2, .cls-3 {
        stroke: #000;
      }

      .cls-1, .cls-3 {
        fill: none;
        stroke-width: 3px;
      }

      .cls-2, .cls-3 {
        stroke-miterlimit: 10;
      }
    </style>
  </defs>
  <path class="cls-3" d="M81.72,100.58c-2.43,1.25-5.2,1.92-8.1,1.85l-2.05-.04c-1.92-.04-3.79.64-5.24,1.91l-1.55,1.35c-6.41,5.62-15.99,5.62-22.4,0l-1.55-1.35c-1.45-1.27-3.32-1.95-5.24-1.91l-2.05.04c-8.52.18-15.86-5.97-17.16-14.4l-.31-2.03c-.29-1.9-1.29-3.63-2.79-4.83l-1.6-1.29c-6.65-5.34-8.31-14.77-3.89-22.06l1.07-1.76c1-1.65,1.34-3.61.97-5.49l-.4-2.02c-1.66-8.36,3.13-16.66,11.2-19.4l1.95-.66c1.82-.62,3.35-1.9,4.27-3.59l.99-1.8c4.1-7.47,13.1-10.75,21.05-7.66l1.92.74c.97.38,1.99.55,3.01.52"/>
  <path class="cls-1" d="M122.2,41.8c.78-.03,1.48.5,1.64,1.27.31,1.44,1.37,2.87,2.13,4.11l.33.54c4.84,7.98,3.02,18.32-4.26,24.17h0c-1.82,1.46-3.02,3.55-3.38,5.85h0c-1.42,9.23-9.46,15.98-18.8,15.77h0c-2.33-.05-4.59.77-6.35,2.31h0c-7.02,6.16-17.52,6.16-24.54,0h0c-1.75-1.54-4.02-2.36-6.35-2.31h0c-9.34.2-17.38-6.54-18.8-15.77h0c-.35-2.3-1.56-4.39-3.38-5.85h0c-7.28-5.85-9.1-16.18-4.26-24.17h0c1.21-1.99,1.63-4.37,1.17-6.65h0c-1.82-9.16,3.43-18.25,12.27-21.25h0c2.21-.75,4.05-2.3,5.17-4.34h0c4.49-8.19,14.36-11.78,23.06-8.39l.59.23c1.37.53,3.56,1.11,5.33,1.05.82-.03,1.52.56,1.64,1.37.25,1.7.94,4.38,2.82,6.27s4.16,2.69,5.73,3.11c.86.23,1.38,1.09,1.17,1.95-.69,2.75-1.23,8.43,4.47,12.23,4.21,2.81,9.42,2.13,12.08,1.49.89-.21,1.78.34,1.97,1.23.36,1.62,1.29,3.96,3.73,5.18,1.21.6,3.34.65,4.81.6Z"/>
  <circle class="cls-2" cx="105.53" cy="23.42" r=".99"/>
  <circle class="cls-2" cx="24.16" cy="57.9" r=".99"/>
  <circle class="cls-2" cx="77.95" cy="62.03" r=".99"/>
  <circle class="cls-2" cx="88.99" cy="49.62" r=".99"/>
  <circle class="cls-3" cx="104.94" cy="11.56" r="2.96"/>
  <circle class="cls-3" cx="23.57" cy="70.86" r="2.96"/>
  <circle class="cls-3" cx="96.66" cy="61.21" r="2.96"/>
  <circle class="cls-3" cx="77.36" cy="41.9" r="2.96"/>
  <circle class="cls-3" cx="62.18" cy="68.11" r="2.96"/>
  <circle class="cls-2" cx="119.37" cy="22.43" r=".99"/>
  <circle class="cls-2" cx="36.62" cy="85.87" r=".99"/>
  <circle class="cls-2" cx="60.06" cy="52.77" r=".99"/>
  <circle class="cls-2" cx="105.58" cy="54.15" r=".99"/>
  <circle class="cls-2" cx="62.82" cy="36.22" r=".99"/>
  <circle class="cls-2" cx="87.65" cy="73.46" r=".99"/>
</svg>